<?xml version="1.0" encoding="utf-8"?>
<!-- Generator: Adobe Illustrator 23.0.2, SVG Export Plug-In . SVG Version: 6.00 Build 0)  -->
<svg version="1.1" id="Layer_1" xmlns="http://www.w3.org/2000/svg" xmlns:xlink="http://www.w3.org/1999/xlink" x="0px" y="0px"
	 viewBox="0 0 512 512" style="enable-background:new 0 0 512 512;" xml:space="preserve">
<style type="text/css">
	.st0{fill:#FFFFFF;}
	.st1{fill:#007AB5;}
</style>
<g>
	<ellipse class="st0" cx="256" cy="256" rx="256" ry="256"/>
</g>
<path class="st1" d="M220.6,387.1c0-4.2-0.1-15.3-0.2-30c-49.9,10.6-60.4-23.6-60.4-23.6c-8.2-20.3-20-25.8-20-25.8
	c-16.2-10.9,1.3-10.7,1.3-10.7c18,1.2,27.5,18.2,27.5,18.2c16,26.9,42,19.2,52.2,14.7c1.6-11.4,6.2-19.2,11.4-23.6
	c-39.8-4.4-81.7-19.6-81.7-87.1c0-19.2,7-35,18.5-47.3c-2-4.5-8.1-22.4,1.6-46.7c0,0,15-4.7,49.3,18.1c14.3-3.9,29.6-5.9,44.8-5.9
	c15.2,0.1,30.5,2,44.8,5.9c34.1-22.8,49.1-18.1,49.1-18.1c9.6,24.3,3.6,42.2,1.8,46.7c11.4,12.3,18.4,28.1,18.4,47.3
	c0,67.7-41.9,82.6-81.8,86.9c6.3,5.3,12.1,16.1,12.1,32.6c0,23.6-0.2,42.5-0.2,48.3L220.6,387.1z"/>
</svg>
