<?xml version="1.0" encoding="utf-8"?>
<!-- Generator: Adobe Illustrator 23.0.2, SVG Export Plug-In . SVG Version: 6.00 Build 0)  -->
<svg version="1.1" id="Layer_1" xmlns="http://www.w3.org/2000/svg" xmlns:xlink="http://www.w3.org/1999/xlink" x="0px" y="0px"
	 viewBox="0 0 512 512" style="enable-background:new 0 0 512 512;" xml:space="preserve">
<style type="text/css">
	.st0{fill:#FFFFFF;}
	.st1{fill:#007AB5;}
</style>
<g>
	<g>
		<ellipse class="st0" cx="256" cy="256" rx="256" ry="256"/>
	</g>
	<g>
		<path class="st1" d="M134.1,202.1h56v180h-56V202.1z M162.1,112.7c17.9,0,32.4,14.5,32.4,32.4s-14.5,32.5-32.4,32.5
			c-18,0-32.5-14.6-32.5-32.5S144.1,112.7,162.1,112.7"/>
		<path class="st1" d="M225.2,202.1h53.7v24.6h0.7c7.5-14.2,25.7-29.1,53-29.1c56.6,0,67.1,37.3,67.1,85.7V382h-55.9v-87.5
			c0-20.9-0.4-47.7-29.1-47.7c-29.1,0-33.6,22.7-33.6,46.2v89h-55.9L225.2,202.1L225.2,202.1z"/>
	</g>
</g>
</svg>
